<?xml version="1.0" encoding="iso-8859-1"?>
<!-- Generator: Adobe Illustrator 19.0.0, SVG Export Plug-In . SVG Version: 6.00 Build 0)  -->
<svg version="1.1" id="Layer_1" xmlns="http://www.w3.org/2000/svg" xmlns:xlink="http://www.w3.org/1999/xlink" x="0px" y="0px"
	 viewBox="0 0 512 512" style="enable-background:new 0 0 512 512;" xml:space="preserve">
<path style="fill:#ECF0F1;" d="M469.07,260.871h-6.496c17.939,0,32.481-14.542,32.481-32.481l0,0
	c0-17.939-14.542-32.481-32.481-32.481H319.511l40.242-90.009c6.99-26.087-8.856-53.064-34.84-60.054v-0.082
	c-11.692-3.224-24.139,4.2-27.363,16.234l-19.872,43.051c-7.768,16.828-15.408,33.728-22.18,50.982
	c-10.304,26.249-32.1,46.61-59.446,54.926l0,0c-15.346,4.667-31.299,7.038-47.339,7.038h-13.064v215.669h15.836
	c14.188,0,28.282,2.287,41.742,6.774l25.618,8.539c13.459,4.487,27.554,6.774,41.742,6.774h176.005
	c17.939,0,32.481-14.542,32.481-32.481l0,0c0-17.939-14.542-32.481-32.481-32.481h12.992c17.939,0,32.481-14.542,32.481-32.481l0,0
	c0-17.939-14.542-32.481-32.481-32.481h19.488c17.939,0,32.481-14.542,32.481-32.481l0,0
	C501.551,275.414,487.009,260.871,469.07,260.871z"/>
<rect x="10.449" y="180.965" style="fill:#3EBD91;" width="125.2" height="285.832"/>
<circle style="fill:#ECF0F1;" cx="73.049" cy="398.91" r="26.122"/>
<g>
	<path style="fill:#231F20;" d="M512,293.353c0-14.585-7.311-27.494-18.46-35.256c7.407-7.719,11.964-17.972,11.964-29.488
		c0-23.671-19.259-42.713-42.93-42.713H335.629l33.663-75.511c0.226-0.505,0.412-1.135,0.554-1.67
		c8.356-31.181-9.937-63.44-40.885-72.527c-0.41-0.171-0.834-0.347-1.271-0.467c-8.225-2.266-16.927-1.14-24.504,3.199
		c-7.422,4.25-13.013,11.293-15.461,19.441l-19.533,42.314c-7.074,15.324-15.222,33.208-22.419,51.542
		c-9.264,23.6-28.495,41.512-52.761,48.891c-14.37,4.371-29.275,6.73-44.299,6.73h-2.426V180.97c0-5.77-4.866-10.748-10.637-10.748
		h-125.2C4.678,170.222,0,175.2,0,180.97v285.827c0,5.77,4.678,10.626,10.449,10.626h125.2c5.771,0,10.637-4.855,10.637-10.626
		v-22.811h5.199c13.086,0,26.019,2.164,38.438,6.302l25.619,8.437c14.552,4.85,29.709,7.205,45.045,7.205h176.005
		c23.671,0,42.93-19.121,42.93-42.792c0-9.571-3.151-18.352-8.468-25.498c1.125-1.071,2.008-2.355,2.568-3.836
		c11.383-7.728,18.891-20.741,18.891-35.507c0-9.28-2.959-17.872-7.984-24.901C500.583,327.176,512,311.577,512,293.353z
		 M125.388,456.524H20.898V191.12h104.49V456.524z M472.017,314.912c-0.935-0.275-47.77-0.678-47.77-0.678
		c-5.771,0-10.449,4.679-10.449,10.449s4.678,10.449,10.449,10.449c0,0,24.068,0.899,25.335,0.899
		c12.148,0,22.031,10.285,22.031,22.433c0,10.348-7.181,18.648-16.815,21.783h-50.039c-5.771,0-10.449,4.587-10.449,10.357
		s4.678,10.403,10.449,10.403c0,0,30.563,0.443,31.831,0.443c12.148,0,22.032,9.641,22.032,21.789
		c0,12.148-9.883,21.79-22.032,21.79H260.586c-13.086,0-26.019-1.961-38.437-6.099l-25.619-8.538
		c-14.553-4.85-29.709-7.306-45.046-7.306h-5.199V228.735h2.427c17.086,0,34.037-2.666,50.38-7.635
		c30.415-9.249,54.52-31.594,66.134-61.177c6.99-17.81,42.264-94.619,42.418-95.193c0.859-3.204,3.019-6.01,5.927-7.676
		c2.43-1.393,5.126-1.883,7.69-1.411c0.305,0.114,0.619,0.211,0.938,0.298c20.385,5.483,32.653,26.23,27.656,46.5l-39.883,89.203
		c-1.445,3.234-1.155,7.195,0.771,10.165c1.927,2.972,5.227,4.982,8.768,4.982h143.063c12.148,0,22.032,9.597,22.032,21.745
		c0,10.348-7.181,19.006-16.815,21.095h-27.953c-5.771,0-10.449,4.587-10.449,10.357c0,5.77,4.678,10.403,10.449,10.403
		l29.233,1.022c12.148,0,22.031,9.711,22.031,21.859C491.102,304.421,482.773,313.465,472.017,314.912z"/>
	<path style="fill:#231F20;" d="M73.049,362.342c-20.165,0-36.571,16.406-36.571,36.572c0,20.167,16.406,36.572,36.571,36.572
		s36.571-16.406,36.571-36.572C109.62,378.748,93.214,362.342,73.049,362.342z M73.049,414.589c-8.642,0-15.673-7.031-15.673-15.675
		s7.031-15.675,15.673-15.675c8.642,0,15.673,7.031,15.673,15.675S81.691,414.589,73.049,414.589z"/>
</g>
<g>
</g>
<g>
</g>
<g>
</g>
<g>
</g>
<g>
</g>
<g>
</g>
<g>
</g>
<g>
</g>
<g>
</g>
<g>
</g>
<g>
</g>
<g>
</g>
<g>
</g>
<g>
</g>
<g>
</g>
</svg>
